<svg width="105" height="77" viewBox="0 0 105 77" fill="none" xmlns="http://www.w3.org/2000/svg">
<path d="M18.2212 9.39755C17.5112 11.8846 17.8215 14.4145 18.8842 16.5533C18.4236 16.3377 17.9536 16.1551 17.449 16.0102C12.1842 14.4983 6.68455 17.5506 5.17352 22.8437C3.66249 28.1368 6.70716 33.6428 11.9829 35.1579C13.2772 35.5295 14.592 35.6214 15.8569 35.4726C14.3455 36.3602 13.1535 37.792 12.632 39.6187C11.564 43.3602 13.7164 47.2526 17.4456 48.3236C21.1749 49.3945 24.7086 47.4088 25.9661 43.9599C26.7972 45.7464 28.3603 47.1716 30.3895 47.7543C34.1187 48.8253 37.9989 46.6652 39.067 42.9237C39.5916 41.086 39.3311 39.2133 38.4952 37.6516C44.5131 37.8558 50.1214 33.9655 51.8524 27.9021C52.2702 26.4385 52.42 24.9575 52.3473 23.5078C53.2082 27.6008 53.1192 31.945 51.8909 36.2477C47.8621 50.3192 33.2443 58.4566 19.2267 54.4311C5.20917 50.4057 -2.89953 35.7419 1.11522 21.6783C4.31949 10.4538 14.2728 3.0248 25.2796 2.50651C21.9973 3.36183 19.2233 5.88714 18.2212 9.39755Z" fill="black"/>
<path d="M12.5475 39.5944C11.466 43.3827 13.6456 47.324 17.4215 48.4084C21.1273 49.4725 24.6435 47.5536 25.9755 44.1817C26.8368 45.9035 28.3809 47.2692 30.3652 47.8391C34.1411 48.9234 38.0699 46.7363 39.1514 42.948C39.6677 41.1393 39.4327 39.2973 38.6423 37.7439C44.6424 37.8803 50.2089 33.9792 51.9368 27.9264C52.2609 26.7913 52.4244 25.6459 52.4492 24.5129C53.0865 28.2357 52.9377 32.1439 51.8629 36.0224L51.8064 36.2234C47.7909 50.2482 33.2217 58.3584 19.2509 54.3464C5.28005 50.3343 -2.80166 35.7194 1.19972 21.7026C4.31988 10.7727 13.861 3.45355 24.5292 2.64117C21.5409 3.66795 19.0728 6.09443 18.1368 9.37327C17.4446 11.7979 17.7137 14.263 18.6999 16.3731C18.3059 16.1991 17.9022 16.0485 17.4733 15.9254C12.1618 14.4001 6.61336 17.4795 5.08896 22.8194C3.56459 28.1593 6.63633 33.7141 11.9588 35.2426C13.1367 35.5808 14.3314 35.6893 15.4907 35.5972C14.1144 36.5038 13.0379 37.8764 12.5475 39.5944ZM12.7165 39.643C13.2313 37.8394 14.4082 36.4256 15.9013 35.5487L16.2634 35.3361L15.8466 35.3851C14.5929 35.5325 13.2899 35.4414 12.0072 35.0731C6.7781 33.5714 3.7603 28.1143 5.25796 22.868C6.75561 17.6217 12.2067 14.5964 17.4249 16.0949C17.9244 16.2383 18.3901 16.4192 18.8471 16.6331L19.0751 16.74L18.9629 16.514C17.9094 14.3939 17.6022 11.8866 18.3058 9.42181C19.2989 5.94281 22.0481 3.43969 25.3016 2.59184L26.1196 2.37864L25.2754 2.41847C14.2323 2.93849 4.2457 10.392 1.03072 21.654C-2.99737 35.7644 5.13828 50.477 19.2025 54.5159C33.2668 58.5548 47.9331 50.3902 51.9754 36.2721C53.2077 31.9552 53.297 27.5963 52.4333 23.4896L52.2595 23.5122C52.3318 24.9528 52.1828 26.4241 51.7678 27.8778C50.0483 33.9014 44.4768 37.7663 38.4982 37.5636L38.3454 37.5584L38.4177 37.6934C39.2433 39.2359 39.5004 41.085 38.9824 42.8995C37.9277 46.5942 34.0961 48.7271 30.4136 47.6696C28.41 47.0942 26.8665 45.687 26.0457 43.9226L25.9562 43.7302L25.8836 43.9296C24.6412 47.3371 21.1528 49.2965 17.4699 48.2389C13.7873 47.1813 11.6617 43.3377 12.7165 39.643Z" fill="black"/>
<path d="M58.2157 14.7986L57.0844 14.5213C53.891 13.7352 51.4478 11.1524 50.8261 7.9258L49.3204 0.0636999L49.5895 8.05885C49.7049 11.3544 47.8929 14.4179 44.955 15.896L43.9156 16.4191L45.0469 16.6963C48.2404 17.4824 50.6836 20.0653 51.3052 23.2919L52.811 31.154L52.5418 23.1588C52.4264 19.8633 54.2385 16.7998 57.1764 15.3217L58.2157 14.7986Z" fill="black"/>
<path d="M52.8987 31.1511L52.6296 23.1559C52.5154 19.8948 54.3086 16.8631 57.2158 15.4004L58.4688 14.7698L57.1053 14.4358C53.9946 13.67 51.6033 11.1813 50.9426 8.05819L50.9125 7.90913L49.4066 0.0470346L49.2324 0.066685L49.5016 8.06185C49.6158 11.3229 47.8228 14.3546 44.9156 15.8172L43.6626 16.4478L45.0261 16.782L45.1735 16.8197C48.2611 17.6399 50.6133 20.1657 51.2189 23.3087L52.7246 31.1705L52.8987 31.1511ZM51.3916 23.2753L51.3915 23.2751C50.7731 20.0657 48.3714 17.4867 45.2186 16.6493L45.0678 16.6106L44.1688 16.3904L44.9944 15.9747C47.9629 14.4812 49.794 11.3858 49.6774 8.05592L49.446 1.1881L50.7397 7.94245L50.7705 8.09492C51.4452 11.284 53.887 13.825 57.0634 14.6069L57.9626 14.8274L57.137 15.2429C54.1684 16.7365 52.3373 19.8319 52.454 23.1619L52.6852 30.0302L51.3916 23.2753Z" fill="black"/>
<path d="M18.2212 9.39755C17.5112 11.8846 17.8215 14.4145 18.8842 16.5533C18.4236 16.3377 17.9536 16.1551 17.449 16.0102C12.1842 14.4983 6.68455 17.5506 5.17352 22.8437C3.66249 28.1368 6.70716 33.6428 11.9829 35.1579C13.2772 35.5295 14.592 35.6214 15.8569 35.4726C14.3455 36.3602 13.1535 37.792 12.632 39.6187C11.564 43.3602 13.7164 47.2526 17.4456 48.3236C21.1749 49.3945 24.7086 47.4088 25.9661 43.9599C26.7972 45.7464 28.3603 47.1716 30.3895 47.7543C34.1187 48.8253 37.9989 46.6652 39.067 42.9237C39.5916 41.086 39.3311 39.2133 38.4952 37.6516C44.5131 37.8558 50.1214 33.9655 51.8524 27.9021C52.2702 26.4385 52.42 24.9575 52.3473 23.5078C53.2082 27.6008 53.1192 31.945 51.8909 36.2477C47.8621 50.3192 33.2443 58.4566 19.2267 54.4311C5.20917 50.4057 -2.89953 35.7419 1.11522 21.6783C4.31949 10.4538 14.2728 3.0248 25.2796 2.50651C21.9973 3.36183 19.2233 5.88714 18.2212 9.39755Z" fill="black"/>
<path d="M12.5475 39.5944C11.466 43.3827 13.6456 47.324 17.4215 48.4084C21.1273 49.4725 24.6435 47.5536 25.9755 44.1817C26.8368 45.9035 28.3809 47.2692 30.3652 47.8391C34.1411 48.9234 38.0699 46.7363 39.1514 42.948C39.6677 41.1393 39.4327 39.2973 38.6423 37.7439C44.6424 37.8803 50.2089 33.9792 51.9368 27.9264C52.2609 26.7913 52.4244 25.6459 52.4492 24.5129C53.0865 28.2357 52.9377 32.1439 51.8629 36.0224L51.8064 36.2234C47.7909 50.2482 33.2217 58.3584 19.2509 54.3464C5.28005 50.3343 -2.80166 35.7194 1.19972 21.7026C4.31988 10.7727 13.861 3.45355 24.5292 2.64117C21.5409 3.66795 19.0728 6.09443 18.1368 9.37327C17.4446 11.7979 17.7137 14.263 18.6999 16.3731C18.3059 16.1991 17.9022 16.0485 17.4733 15.9254C12.1618 14.4001 6.61336 17.4795 5.08896 22.8194C3.56459 28.1593 6.63633 33.7141 11.9588 35.2426C13.1367 35.5808 14.3314 35.6893 15.4907 35.5972C14.1144 36.5038 13.0379 37.8764 12.5475 39.5944ZM12.7165 39.643C13.2313 37.8394 14.4082 36.4256 15.9013 35.5487L16.2634 35.3361L15.8466 35.3851C14.5929 35.5325 13.2899 35.4414 12.0072 35.0731C6.7781 33.5714 3.7603 28.1143 5.25796 22.868C6.75561 17.6217 12.2067 14.5964 17.4249 16.0949C17.9244 16.2383 18.3901 16.4192 18.8471 16.6331L19.0751 16.74L18.9629 16.514C17.9094 14.3939 17.6022 11.8866 18.3058 9.42181C19.2989 5.94281 22.0481 3.43969 25.3016 2.59184L26.1196 2.37864L25.2754 2.41847C14.2323 2.93849 4.2457 10.392 1.03072 21.654C-2.99737 35.7644 5.13828 50.477 19.2025 54.5159C33.2668 58.5548 47.9331 50.3902 51.9754 36.2721C53.2077 31.9552 53.297 27.5963 52.4333 23.4896L52.2595 23.5122C52.3318 24.9528 52.1828 26.4241 51.7678 27.8778C50.0483 33.9014 44.4768 37.7663 38.4982 37.5636L38.3454 37.5584L38.4177 37.6934C39.2433 39.2359 39.5004 41.085 38.9824 42.8995C37.9277 46.5942 34.0961 48.7271 30.4136 47.6696C28.41 47.0942 26.8665 45.687 26.0457 43.9226L25.9562 43.7302L25.8836 43.9296C24.6412 47.3371 21.1528 49.2965 17.4699 48.2389C13.7873 47.1813 11.6617 43.3377 12.7165 39.643Z" fill="black"/>
<path d="M58.2157 14.7986L57.0844 14.5213C53.891 13.7352 51.4478 11.1524 50.8261 7.9258L49.3204 0.0636999L49.5895 8.05885C49.7049 11.3544 47.8929 14.4179 44.955 15.896L43.9156 16.4191L45.0469 16.6963C48.2404 17.4824 50.6836 20.0653 51.3052 23.2919L52.811 31.154L52.5418 23.1588C52.4264 19.8633 54.2385 16.7998 57.1764 15.3217L58.2157 14.7986Z" fill="black"/>
<path d="M52.8987 31.1511L52.6296 23.1559C52.5154 19.8948 54.3086 16.8631 57.2158 15.4004L58.4688 14.7698L57.1053 14.4358C53.9946 13.67 51.6033 11.1813 50.9426 8.05819L50.9125 7.90913L49.4066 0.0470346L49.2324 0.066685L49.5016 8.06185C49.6158 11.3229 47.8228 14.3546 44.9156 15.8172L43.6626 16.4478L45.0261 16.782L45.1735 16.8197C48.2611 17.6399 50.6133 20.1657 51.2189 23.3087L52.7246 31.1705L52.8987 31.1511ZM51.3916 23.2753L51.3915 23.2751C50.7731 20.0657 48.3714 17.4867 45.2186 16.6493L45.0678 16.6106L44.1688 16.3904L44.9944 15.9747C47.9629 14.4812 49.794 11.3858 49.6774 8.05592L49.446 1.1881L50.7397 7.94245L50.7705 8.09492C51.4452 11.284 53.887 13.825 57.0634 14.6069L57.9626 14.8274L57.137 15.2429C54.1684 16.7365 52.3373 19.8319 52.454 23.1619L52.6852 30.0302L51.3916 23.2753Z" fill="black"/>
<path d="M86.7127 9.2446C87.431 11.7292 87.1293 14.2602 86.0738 16.4026C86.5337 16.1854 87.0031 16.0012 87.5071 15.8546C92.7668 14.3248 98.2768 17.3584 99.8056 22.6464C101.335 27.9343 98.3084 33.4506 93.0378 34.9836C91.7448 35.3597 90.4303 35.4559 89.165 35.3115C90.6793 36.194 91.8761 37.6217 92.4038 39.4466C93.4845 43.1845 91.3452 47.0842 87.6196 48.1678C83.894 49.2514 80.3536 47.2777 79.0844 43.833C78.2594 45.6223 76.7011 47.0529 74.6739 47.6425C70.9483 48.7261 67.0608 46.5792 65.9801 42.8414C65.4493 41.0054 65.7035 39.1318 66.5341 37.5673C60.5169 37.7919 54.8955 33.9207 53.1441 27.8632C52.7214 26.401 52.5665 24.9205 52.6344 23.4706C51.7873 27.5665 51.8909 31.9104 53.1337 36.2089C57.2101 50.2667 71.8552 58.3544 85.8591 54.2813C99.863 50.2083 107.922 35.5171 103.86 21.4672C100.618 10.2536 90.6395 2.85848 79.6311 2.37756C82.9162 3.22173 85.6987 5.73761 86.7127 9.2446Z" fill="black"/>
<path d="M92.4883 39.422C93.5825 43.2066 91.4163 47.1553 87.644 48.2525C83.9418 49.3292 80.4191 47.4222 79.0758 44.0548C78.2204 45.7796 76.6809 47.1506 74.6985 47.7272C70.9262 48.8243 66.99 46.6505 65.8958 42.8659C65.3734 41.059 65.6022 39.2162 66.3874 37.6601C60.3878 37.8169 54.8081 33.9347 53.0597 27.8878C52.7319 26.7538 52.5644 25.609 52.5359 24.476C51.9112 28.201 52.0731 32.1087 53.161 35.9835L53.2181 36.1843C57.2809 50.1954 71.8774 58.2561 85.8347 54.1967C99.7919 50.1372 107.824 35.4949 103.776 21.4917C100.619 10.5725 91.0528 3.28583 80.3819 2.50967C83.3736 3.5263 85.8499 5.94439 86.797 9.22003C87.4973 11.6423 87.2366 14.1083 86.2575 16.2217C86.6509 16.0464 87.0542 15.8945 87.4826 15.7698C92.7889 14.2265 98.3477 17.2871 99.8901 22.6218C101.433 27.9565 98.3795 33.5217 93.0623 35.0682C91.8855 35.4104 90.6912 35.523 89.5316 35.4348C90.9109 36.3367 91.992 37.7057 92.4883 39.422ZM92.3194 39.4711C91.7985 37.6693 90.6169 36.2596 89.1208 35.3878L88.758 35.1763L89.175 35.2239C90.4291 35.3671 91.7318 35.2716 93.0133 34.8989C98.2373 33.3795 101.237 27.9122 99.7213 22.6709C98.2059 17.4298 92.7447 14.423 87.5316 15.9392C87.0325 16.0843 86.5675 16.2668 86.1112 16.4823L85.8835 16.5899L85.995 16.3635C87.0413 14.2399 87.3401 11.7315 86.6282 9.26914C85.6233 5.79353 82.8657 3.29976 79.6093 2.46296L78.7906 2.25254L79.6349 2.2895C90.6798 2.77204 100.691 10.1916 103.944 21.4426C108.02 35.5393 99.9341 50.2794 85.8836 54.366C71.833 58.4526 57.1392 50.3379 53.0494 36.2336C51.8025 31.9208 51.6984 27.5623 52.5484 23.4527L52.7222 23.4748C52.6548 24.9155 52.8087 26.3864 53.2286 27.8387C54.9684 33.8563 60.5529 37.7024 66.5308 37.4793L66.6836 37.4736L66.6117 37.6089C65.7913 39.1541 65.5405 41.0041 66.0646 42.8168C67.1318 46.5079 70.9706 48.6278 74.6495 47.5578C76.6511 46.9756 78.1899 45.5632 79.0047 43.796L79.0936 43.6033L79.1669 43.8025C80.4208 47.2057 83.9157 49.1532 87.5951 48.0831C91.274 47.0131 93.3866 43.1623 92.3194 39.4711Z" fill="black"/>
<path d="M46.7366 14.7814L47.867 14.5003C51.0577 13.7034 53.4922 11.1122 54.103 7.88354L55.5822 0.0163723L55.34 8.01239C55.2357 11.3083 57.0581 14.3656 60.001 15.8338L61.0421 16.3533L59.9117 16.6344C56.7209 17.4313 54.2865 20.0225 53.6757 23.2512L52.1965 31.1183L52.4387 23.1223C52.543 19.8264 50.7206 16.7691 47.7777 15.3009L46.7366 14.7814Z" fill="black"/>
<path d="M52.1087 31.1157L52.3509 23.1197C52.4541 19.8582 50.6506 16.8326 47.7385 15.3798L46.4834 14.7535L47.8458 14.4148C50.9539 13.6385 53.3368 11.1417 53.9869 8.01632L54.0166 7.86716L55.4959 0L55.6701 0.019059L55.4279 8.01509C55.3247 11.2766 57.128 14.3021 60.0401 15.7548L61.2952 16.3812L59.9329 16.72L59.7856 16.7582C56.7007 17.5888 54.3571 20.1226 53.7621 23.2676L52.2829 31.1346L52.1087 31.1157ZM53.5893 23.2349L53.5894 23.2347C54.1969 20.0232 56.59 17.4361 59.7399 16.5879L59.8905 16.5488L60.7888 16.3255L59.9618 15.9126C56.9883 14.4291 55.1468 11.3401 55.2521 8.00976L55.4603 1.14119L54.1894 7.8999L54.1592 8.05247C53.4952 11.2438 51.062 13.7931 47.8883 14.5858L46.9898 14.8093L47.8168 15.222C50.7904 16.7055 52.6319 19.7947 52.5265 23.125L52.3185 29.9941L53.5893 23.2349Z" fill="black"/>
<path d="M52.5691 15.5889L56.624 46.3395H48.5142L52.5691 15.5889Z" fill="black"/>
<path d="M52.5691 77L56.624 46.2493H48.5142L52.5691 77Z" fill="black"/>
</svg>
